<?xml version="1.0" encoding="UTF-8"?><svg id="Layer_1" xmlns="http://www.w3.org/2000/svg" xmlns:xlink="http://www.w3.org/1999/xlink" viewBox="0 0 1000 982.48"><defs><style>.cls-1{fill:url(#linear-gradient-2);}.cls-2{fill:#fff;}.cls-3{fill:none;}.cls-4{fill:url(#linear-gradient-4);}.cls-5{fill:url(#linear-gradient-3);}.cls-6{clip-path:url(#clippath-1);}.cls-7{clip-path:url(#clippath-3);}.cls-8{fill:#1e5e60;}.cls-9{clip-path:url(#clippath-2);}.cls-10{fill:url(#linear-gradient);}.cls-11{clip-path:url(#clippath);}</style><clipPath id="clippath"><path class="cls-3" d="M725.94,472.17l34.31,250.21h121.12l-26.19-157.77c-12.54-52.35-63.05-93.18-116.8-93.17-4.13,0-8.29.24-12.44.74"/></clipPath><linearGradient id="linear-gradient" x1="-2002.4" y1="-468.99" x2="-1998.23" y2="-468.99" gradientTransform="translate(75393.85 -16891.51) scale(37.29 -37.29)" gradientUnits="userSpaceOnUse"><stop offset="0" stop-color="#1e5e60"/><stop offset=".19" stop-color="#1c595b"/><stop offset=".4" stop-color="#184b4d"/><stop offset=".63" stop-color="#113536"/><stop offset=".86" stop-color="#071616"/><stop offset="1" stop-color="#000"/></linearGradient><clipPath id="clippath-1"><path class="cls-3" d="M145.61,563.28l-26.98,159.09h118.11l33.39-244.05c-3.79-.44-7.57-.65-11.35-.65-50.49,0-98.24,38.01-113.17,85.61"/></clipPath><linearGradient id="linear-gradient-2" x1="-2013.29" y1="-470.17" x2="-2009.12" y2="-470.17" gradientTransform="translate(73295.89 -16489.25) scale(36.35 -36.35)" xlink:href="#linear-gradient"/><clipPath id="clippath-2"><path class="cls-3" d="M710.46,308.2c-60.93,4.82-84.05,83.22-34.73,120.82,55.78,42.52,128.86-18.67,101.23-81.81-10-22.85-36.85-39.19-62.04-39.18-1.5,0-2.98.05-4.46.17"/></clipPath><linearGradient id="linear-gradient-3" x1="-1993.07" y1="-471.05" x2="-1988.9" y2="-471.05" gradientTransform="translate(64729.98 -14755.24) scale(32.15 -32.15)" xlink:href="#linear-gradient"/><clipPath id="clippath-3"><path class="cls-3" d="M264.6,308.2c-60.93,4.82-84.05,83.22-34.73,120.82,55.78,42.52,128.86-18.67,101.23-81.81-10-22.85-36.86-39.19-62.04-39.18-1.5,0-2.98.05-4.46.17"/></clipPath><linearGradient id="linear-gradient-4" x1="-2003.61" y1="-471.05" x2="-1999.44" y2="-471.05" gradientTransform="translate(64623.01 -14755.24) scale(32.15 -32.15)" xlink:href="#linear-gradient"/></defs><circle class="cls-2" cx="500" cy="491.24" r="483.34"/><path class="cls-8" d="M742.38,722.37h-484.76l25.82-202.86c47.92-189.67,373.36-193.3,430.91-8.33l28.02,211.19Z"/><g class="cls-11"><rect class="cls-10" x="725.94" y="471.43" width="155.43" height="250.95"/></g><g class="cls-6"><rect class="cls-1" x="118.63" y="477.67" width="151.5" height="244.7"/></g><g class="cls-9"><rect class="cls-5" x="626.41" y="308.03" width="178.18" height="163.51"/></g><g class="cls-7"><rect class="cls-4" x="180.56" y="308.03" width="178.18" height="163.51"/></g><path class="cls-8" d="M477.34,145.87c116.01-19.57,177.14,124.12,84.5,191.98-85.8,62.84-198.84-24.1-160.89-126.69,10.49-28.35,46.33-60.21,76.39-65.29"/><path class="cls-2" d="M549.14,509.92c.74-.18,1.31,0,1.84.5,1.92,2.99,17.75,14.69,17.74,16.64-26.55,27.44-54.49,54.15-81.68,81.21l-55.77-52.35.54-1.72,18.35-16.54,36.75,33.1,62.23-60.86Z"/></svg>