<svg width="258" height="152" viewBox="0 0 258 152" fill="none" xmlns="http://www.w3.org/2000/svg">
<line x1="163.24" y1="12.7244" x2="167.5" y2="1.01986" stroke="#107569" stroke-width="2"/>
<line x1="189.864" y1="12.1777" x2="196.092" y2="1.39079" stroke="#107569" stroke-width="2"/>
<line x1="216.656" y1="11.6453" x2="224.662" y2="2.10368" stroke="#107569" stroke-width="2"/>
<line x1="243.65" y1="10.7437" x2="253.192" y2="2.73735" stroke="#107569" stroke-width="2"/>
<line x1="4.46052" y1="12.9309" x2="-3.54585" y2="3.38926" stroke="#107569" stroke-width="2"/>
<line x1="31.0519" y1="13.1777" x2="24.8241" y2="2.39079" stroke="#107569" stroke-width="2"/>
<line x1="57.5291" y1="13.4084" x2="53.269" y2="1.7039" stroke="#107569" stroke-width="2"/>
<line x1="83.9371" y1="13.6297" x2="81.7742" y2="1.36324" stroke="#107569" stroke-width="2"/>
<line x1="110.324" y1="13.4561" x2="110.324" y2="1.00036" stroke="#107569" stroke-width="2"/>
<line x1="136.742" y1="13.2824" x2="138.905" y2="1.01594" stroke="#107569" stroke-width="2"/>
<line x1="135.217" y1="34.5222" x2="139.477" y2="22.8177" stroke="#107569" stroke-width="2"/>
<line x1="161.837" y1="33.9746" x2="168.065" y2="23.1877" stroke="#107569" stroke-width="2"/>
<line x1="188.628" y1="33.4431" x2="196.635" y2="23.9015" stroke="#107569" stroke-width="2"/>
<line x1="215.627" y1="32.5416" x2="225.168" y2="24.5352" stroke="#107569" stroke-width="2"/>
<line x1="242.859" y1="31.2736" x2="253.646" y2="25.0458" stroke="#107569" stroke-width="2"/>
<line x1="3.02851" y1="34.9746" x2="-3.19934" y2="24.1877" stroke="#107569" stroke-width="2"/>
<line x1="29.5017" y1="35.2063" x2="25.2416" y2="23.5018" stroke="#107569" stroke-width="2"/>
<line x1="55.9097" y1="35.4266" x2="53.7468" y2="23.1601" stroke="#107569" stroke-width="2"/>
<line x1="82.2969" y1="35.2529" x2="82.2969" y2="22.7972" stroke="#107569" stroke-width="2"/>
<line x1="108.718" y1="35.0793" x2="110.881" y2="22.8128" stroke="#107569" stroke-width="2"/>
<line x1="107.189" y1="56.3201" x2="111.449" y2="44.6156" stroke="#107569" stroke-width="2"/>
<line x1="133.814" y1="55.7725" x2="140.042" y2="44.9855" stroke="#107569" stroke-width="2"/>
<line x1="160.605" y1="55.24" x2="168.611" y2="45.6984" stroke="#107569" stroke-width="2"/>
<line x1="187.603" y1="54.3384" x2="197.145" y2="46.3321" stroke="#107569" stroke-width="2"/>
<line x1="214.836" y1="53.0705" x2="225.623" y2="46.8427" stroke="#107569" stroke-width="2"/>
<line x1="242.33" y1="52.2185" x2="254.034" y2="47.9584" stroke="#107569" stroke-width="2"/>
<line x1="1.47828" y1="57.0041" x2="-2.78182" y2="45.2996" stroke="#107569" stroke-width="2"/>
<line x1="27.8863" y1="57.2244" x2="25.7234" y2="44.958" stroke="#107569" stroke-width="2"/>
<line x1="54.2734" y1="57.0508" x2="54.2734" y2="44.5951" stroke="#107569" stroke-width="2"/>
<line x1="80.691" y1="56.8771" x2="82.8539" y2="44.6107" stroke="#107569" stroke-width="2"/>
<line x1="79.1658" y1="78.117" x2="83.4259" y2="66.4124" stroke="#107569" stroke-width="2"/>
<line x1="105.786" y1="77.5703" x2="112.014" y2="66.7834" stroke="#107569" stroke-width="2"/>
<line x1="132.578" y1="77.0379" x2="140.584" y2="67.4963" stroke="#107569" stroke-width="2"/>
<line x1="159.576" y1="76.1363" x2="169.118" y2="68.1299" stroke="#107569" stroke-width="2"/>
<line x1="186.812" y1="74.8683" x2="197.599" y2="68.6405" stroke="#107569" stroke-width="2"/>
<line x1="214.306" y1="74.0164" x2="226.011" y2="69.7563" stroke="#107569" stroke-width="2"/>
<line x1="242.08" y1="72.8033" x2="254.347" y2="70.6404" stroke="#107569" stroke-width="2"/>
<line x1="-0.141058" y1="79.0223" x2="-2.30397" y2="66.7558" stroke="#107569" stroke-width="2"/>
<line x1="26.2461" y1="78.8486" x2="26.2461" y2="66.3929" stroke="#107569" stroke-width="2"/>
<line x1="52.6675" y1="78.675" x2="54.8304" y2="66.4085" stroke="#107569" stroke-width="2"/>
<line x1="51.1384" y1="99.9148" x2="55.3985" y2="88.2103" stroke="#107569" stroke-width="2"/>
<line x1="77.7629" y1="99.3672" x2="83.9907" y2="88.5802" stroke="#107569" stroke-width="2"/>
<line x1="104.554" y1="98.8357" x2="112.561" y2="89.2941" stroke="#107569" stroke-width="2"/>
<line x1="131.553" y1="97.9332" x2="141.094" y2="89.9268" stroke="#107569" stroke-width="2"/>
<line x1="158.785" y1="96.6662" x2="169.572" y2="90.4384" stroke="#107569" stroke-width="2"/>
<line x1="186.279" y1="95.8132" x2="197.984" y2="91.5531" stroke="#107569" stroke-width="2"/>
<line x1="214.053" y1="94.6011" x2="226.319" y2="92.4382" stroke="#107569" stroke-width="2"/>
<line x1="24.6402" y1="100.472" x2="26.8031" y2="88.2054" stroke="#107569" stroke-width="2"/>
<line x1="257.68" y1="95.418" x2="245.224" y2="95.418" stroke="#107569" stroke-width="2"/>
<line x1="23.115" y1="121.712" x2="27.3751" y2="110.007" stroke="#107569" stroke-width="2"/>
<line x1="49.7355" y1="121.165" x2="55.9634" y2="110.378" stroke="#107569" stroke-width="2"/>
<line x1="76.5269" y1="120.633" x2="84.5333" y2="111.091" stroke="#107569" stroke-width="2"/>
<line x1="103.525" y1="119.731" x2="113.067" y2="111.725" stroke="#107569" stroke-width="2"/>
<line x1="130.762" y1="118.463" x2="141.549" y2="112.235" stroke="#107569" stroke-width="2"/>
<line x1="158.256" y1="117.611" x2="169.96" y2="113.351" stroke="#107569" stroke-width="2"/>
<line x1="186.029" y1="116.398" x2="198.296" y2="114.235" stroke="#107569" stroke-width="2"/>
<line x1="229.652" y1="117.216" x2="217.197" y2="117.216" stroke="#107569" stroke-width="2"/>
<line x1="257.365" y1="118.368" x2="245.099" y2="116.205" stroke="#107569" stroke-width="2"/>
<line x1="-4.91235" y1="143.51" x2="-0.65225" y2="131.805" stroke="#107569" stroke-width="2"/>
<line x1="21.7121" y1="142.962" x2="27.9399" y2="132.175" stroke="#107569" stroke-width="2"/>
<line x1="48.5035" y1="142.43" x2="56.5099" y2="132.889" stroke="#107569" stroke-width="2"/>
<line x1="75.5017" y1="141.529" x2="85.0434" y2="133.523" stroke="#107569" stroke-width="2"/>
<line x1="102.734" y1="140.261" x2="113.521" y2="134.033" stroke="#107569" stroke-width="2"/>
<line x1="130.228" y1="139.409" x2="141.933" y2="135.149" stroke="#107569" stroke-width="2"/>
<line x1="158.002" y1="138.196" x2="170.269" y2="136.033" stroke="#107569" stroke-width="2"/>
<line x1="201.629" y1="139.013" x2="189.173" y2="139.013" stroke="#107569" stroke-width="2"/>
<line x1="229.338" y1="140.165" x2="217.072" y2="138.003" stroke="#107569" stroke-width="2"/>
<line x1="256.775" y1="141.288" x2="245.071" y2="137.028" stroke="#107569" stroke-width="2"/>
</svg>
