<svg width="121" height="32" viewBox="0 0 121 32" fill="none" xmlns="http://www.w3.org/2000/svg">
<g clip-path="url(#clip0_692_115535)">
<path d="M30.2825 29.8548H6.74902L8.0025 20.1343C10.3288 11.0459 26.1278 10.872 28.9217 19.7352L30.282 29.8548H30.2825Z" fill="#1E5E60"/>
<mask id="mask0_692_115535" style="mask-type:luminance" maskUnits="userSpaceOnUse" x="29" y="17" width="9" height="13">
<path d="M29.4829 17.8603L31.1485 29.8497H37.0285L35.7571 22.2898C35.1483 19.7813 32.6962 17.8248 30.0868 17.8253C29.8863 17.8253 29.6844 17.8368 29.4829 17.8608" fill="white"/>
</mask>
<g mask="url(#mask0_692_115535)">
<path d="M37.0285 17.8253H29.4829V29.8501H37.0285V17.8253Z" fill="url(#paint0_linear_692_115535)"/>
</g>
<mask id="mask1_692_115535" style="mask-type:luminance" maskUnits="userSpaceOnUse" x="0" y="18" width="8" height="12">
<path d="M1.30979 22.2279L0 29.8511H5.73384L7.35481 18.1569C7.17082 18.1358 6.98731 18.1257 6.8038 18.1257C4.35269 18.1257 2.03459 19.9471 1.30979 22.2279Z" fill="white"/>
</mask>
<g mask="url(#mask1_692_115535)">
<path d="M7.35481 18.1257H0V29.8511H7.35481V18.1257Z" fill="url(#paint1_linear_692_115535)"/>
</g>
<mask id="mask2_692_115535" style="mask-type:luminance" maskUnits="userSpaceOnUse" x="25" y="10" width="8" height="7">
<path d="M28.7313 10.0097C25.7733 10.2406 24.6509 13.9973 27.0452 15.799C29.7532 17.8365 33.301 14.9044 31.9596 11.8789C31.4741 10.784 30.1707 10.001 28.9478 10.0015C28.875 10.0015 28.8031 10.0039 28.7313 10.0097Z" fill="white"/>
</mask>
<g mask="url(#mask2_692_115535)">
<path d="M33.3048 10.0015H24.6548V17.8365H33.3048V10.0015Z" fill="url(#paint2_linear_692_115535)"/>
</g>
<mask id="mask3_692_115535" style="mask-type:luminance" maskUnits="userSpaceOnUse" x="4" y="10" width="7" height="7">
<path d="M7.08673 10.0097C4.12879 10.2406 3.00639 13.9973 5.40071 15.799C8.10864 17.8365 11.6564 14.9044 10.3151 11.8789C9.82962 10.784 8.52565 10.001 7.30325 10.0015C7.23043 10.0015 7.15858 10.0039 7.08673 10.0097Z" fill="white"/>
</mask>
<g mask="url(#mask3_692_115535)">
<path d="M11.6593 10.0015H3.00928V17.8365H11.6593V10.0015Z" fill="url(#paint3_linear_692_115535)"/>
</g>
<path d="M17.417 2.23179C23.0489 1.29405 26.0165 8.17927 21.5192 11.4309C17.3539 14.442 11.8662 10.2761 13.7085 5.3603C14.2178 4.00185 15.9577 2.47521 17.417 2.23179Z" fill="#1E5E60"/>
<path d="M20.9038 19.6707C20.9398 19.6621 20.9674 19.6707 20.9932 19.6946C21.0864 19.8379 21.8549 20.3985 21.8544 20.492C20.5655 21.8068 19.2091 23.0867 17.8891 24.3833L15.1816 21.8749L15.2079 21.7925L16.0987 20.9999L17.8828 22.586L20.9038 19.6697V19.6707Z" fill="white"/>
</g>
<g clip-path="url(#clip1_692_115535)">
<path d="M51.0041 23.5582V29.6937H49.8701V27.064H46.7141V29.6937H45.5801V23.5582H46.7141V26.0906H49.8701V23.5582H51.0041Z" fill="black"/>
<path d="M56.6376 29.6937L55.3903 27.8971C55.3123 27.9054 55.2336 27.9054 55.1548 27.9054H53.7771V29.6937H52.6431V23.5582H55.1541C56.7583 23.5582 57.7521 24.3822 57.7521 25.7408C57.7521 26.6697 57.2811 27.3535 56.4531 27.6777L57.8571 29.6937H56.6368H56.6376ZM55.1031 24.5224H53.7778V26.9682H55.1031C56.0968 26.9682 56.6113 26.5121 56.6113 25.7408C56.6113 24.9695 56.0968 24.5224 55.1031 24.5224Z" fill="black"/>
<path d="M67.0328 29.6937L67.0238 25.627L65.0183 28.9925H64.5128L62.5073 25.6797V29.6937H61.4258V23.5582H62.3588L64.7828 27.6249L67.1633 23.5582H68.0963L68.1053 29.6937H67.0328Z" fill="black"/>
<path d="M73.5469 26.9501V29.6945H72.5179V29.1245C72.2561 29.5278 71.7506 29.7555 71.0531 29.7555C69.9896 29.7555 69.3184 29.1682 69.3184 28.3532C69.3184 27.5382 69.8411 26.9599 71.2541 26.9599H72.4571V26.8891C72.4571 26.2497 72.0731 25.8728 71.2976 25.8728C70.7741 25.8728 70.2341 26.0477 69.8846 26.3372L69.4571 25.5395C69.9544 25.1535 70.6774 24.9605 71.4281 24.9605C72.7706 24.9605 73.5469 25.6006 73.5469 26.9501ZM72.4564 28.2296V27.686H71.3314C70.5904 27.686 70.3901 27.9664 70.3901 28.3087C70.3901 28.703 70.7216 28.9571 71.2796 28.9571C71.8376 28.9571 72.2734 28.7113 72.4564 28.2296Z" fill="black"/>
<path d="M79.5465 23.1895V29.6937H78.5003V29.0883C78.1343 29.5354 77.5935 29.7548 76.9568 29.7548C75.6053 29.7548 74.6025 28.8086 74.6025 27.3535C74.6025 25.8984 75.6053 24.9605 76.9568 24.9605C77.5583 24.9605 78.09 25.1626 78.456 25.5916V23.1895H79.5465ZM78.474 27.3535C78.474 26.4593 77.8725 25.8901 77.088 25.8901C76.3035 25.8901 75.702 26.4593 75.702 27.3535C75.702 28.2477 76.3035 28.8169 77.088 28.8169C77.8725 28.8169 78.474 28.2477 78.474 27.3535Z" fill="black"/>
<path d="M85.337 27.7041H81.6838C81.8143 28.3871 82.3813 28.8259 83.192 28.8259C83.7155 28.8259 84.125 28.6593 84.4565 28.3178L85.0408 28.9926C84.6223 29.4917 83.9675 29.7548 83.1658 29.7548C81.605 29.7548 80.5933 28.7468 80.5933 27.3535C80.5933 25.9602 81.6133 24.9605 83 24.9605C84.3868 24.9605 85.3543 25.9157 85.3543 27.3799C85.3543 27.4681 85.3453 27.5993 85.337 27.7048M81.6748 26.9765H84.317C84.2293 26.3018 83.7155 25.8373 83 25.8373C82.2845 25.8373 81.7798 26.2927 81.6748 26.9765Z" fill="black"/>
<path d="M88.3984 29.0454L88.7907 28.1602C89.2789 28.5545 90.0552 28.835 90.8052 28.835C91.7554 28.835 92.1567 28.4927 92.1567 28.0373C92.1567 26.7134 88.5289 27.5812 88.5289 25.3028C88.5289 24.3122 89.3142 23.4708 90.9882 23.4708C91.7209 23.4708 92.4874 23.6638 93.0199 24.0144L92.6629 24.8995C92.1139 24.5753 91.5117 24.4177 90.9799 24.4177C90.0379 24.4177 89.6547 24.7856 89.6547 25.2508C89.6547 26.5566 93.2734 25.7062 93.2734 27.9589C93.2734 28.9413 92.4799 29.7819 90.8059 29.7819C89.8557 29.7819 88.9054 29.4841 88.3992 29.0461" fill="black"/>
<path d="M94.145 23.5838C94.145 23.2159 94.4413 22.9264 94.8425 22.9264C95.2438 22.9264 95.54 23.1978 95.54 23.5574C95.54 23.9434 95.252 24.2413 94.8425 24.2413C94.433 24.2413 94.145 23.9517 94.145 23.5838ZM94.2935 25.0125H95.3833V29.6937H94.2935V25.0125Z" fill="black"/>
<path d="M104.6 27.012V29.6937H103.51V27.1514C103.51 26.3191 103.126 25.9157 102.464 25.9157C101.749 25.9157 101.252 26.3892 101.252 27.3181V29.6937H100.161V27.1514C100.161 26.3191 99.7775 25.9157 99.1152 25.9157C98.3915 25.9157 97.9032 26.3892 97.9032 27.3181V29.6937H96.8135V25.0125H97.8515V25.6089C98.2002 25.1882 98.741 24.9605 99.377 24.9605C100.057 24.9605 100.624 25.2146 100.947 25.7408C101.322 25.2591 101.949 24.9605 102.69 24.9605C103.815 24.9605 104.6 25.6006 104.6 27.012Z" fill="black"/>
<path d="M110.941 27.3535C110.941 28.8086 109.938 29.7548 108.577 29.7548C107.985 29.7548 107.461 29.5535 107.086 29.1238V31.3939H105.997V25.0126H107.035V25.6263C107.401 25.1792 107.941 24.9598 108.578 24.9598C109.939 24.9598 110.941 25.9067 110.941 27.3528M109.833 27.3535C109.833 26.4594 109.24 25.8901 108.455 25.8901C107.671 25.8901 107.069 26.4594 107.069 27.3535C107.069 28.2477 107.671 28.8169 108.455 28.8169C109.24 28.8169 109.833 28.2477 109.833 27.3535Z" fill="black"/>
<path d="M113.068 23.1895H111.979V29.6937H113.068V23.1895Z" fill="black"/>
<path d="M118.858 27.7041H115.205C115.335 28.3871 115.903 28.8259 116.713 28.8259C117.237 28.8259 117.646 28.6593 117.978 28.3178L118.562 28.9926C118.143 29.4917 117.489 29.7548 116.688 29.7548C115.127 29.7548 114.115 28.7468 114.115 27.3535C114.115 25.9602 115.135 24.9605 116.522 24.9605C117.909 24.9605 118.876 25.9157 118.876 27.3799C118.876 27.4681 118.867 27.5993 118.859 27.7048M115.196 26.9765H117.838C117.75 26.3018 117.237 25.8373 116.521 25.8373C115.806 25.8373 115.301 26.2927 115.196 26.9765Z" fill="black"/>
<path d="M60.8856 2.47141V18.6908C60.8856 18.9585 60.6696 19.1756 60.4034 19.1756H58.1924C57.9261 19.1756 57.7101 18.9585 57.7101 18.6908V12.2937C57.7101 12.026 57.4941 11.8089 57.2279 11.8089H49.3499C49.0836 11.8089 48.8684 12.026 48.8684 12.2937V18.6908C48.8684 18.9585 48.6524 19.1756 48.3861 19.1756H46.1744C45.9081 19.1756 45.6929 18.9585 45.6929 18.6908V2.47141C45.6929 2.20377 45.9089 1.98663 46.1744 1.98663H48.3861C48.6524 1.98663 48.8684 2.20377 48.8684 2.47141V8.59864C48.8684 8.86629 49.0836 9.08267 49.3499 9.08267H57.2286C57.4949 9.08267 57.7109 8.86629 57.7109 8.59864V2.47141C57.7109 2.20377 57.9269 1.98663 58.1931 1.98663H60.4041C60.6704 1.98663 60.8864 2.20377 60.8864 2.47141" fill="black"/>
<path d="M76.5218 18.9675L73.329 14.3662C73.236 14.2328 73.0823 14.1529 72.9195 14.1597C72.7838 14.1657 72.6488 14.1657 72.513 14.1657H69.1358C68.8695 14.1657 68.6543 14.3828 68.6543 14.6497V18.6901C68.6543 18.9577 68.4383 19.1748 68.172 19.1748H65.9603C65.694 19.1748 65.478 18.9577 65.478 18.6901V2.47141C65.478 2.20377 65.694 1.98663 65.9603 1.98663H72.513C77.0078 1.98663 79.7925 4.29518 79.7925 8.10104C79.7925 10.5038 78.669 12.3201 76.671 13.3002C76.4063 13.4299 76.3193 13.7669 76.488 14.0096L79.554 18.4134C79.7775 18.7345 79.5488 19.1756 79.1588 19.1756H76.9163C76.7588 19.1756 76.611 19.0979 76.521 18.9683M72.3668 4.68798H69.1358C68.8695 4.68798 68.6543 4.90511 68.6543 5.17276V11.0542C68.6543 11.3219 68.8703 11.539 69.1358 11.539H72.3668C75.1515 11.539 76.5923 10.2618 76.5923 8.10104C76.5923 5.94027 75.1515 4.68798 72.3668 4.68798Z" fill="black"/>
<path d="M99.0404 18.6915L99.021 9.52596C99.0202 9.03515 98.3767 8.85646 98.1255 9.27791L93.5392 16.9748C93.4522 17.1211 93.2954 17.2101 93.1259 17.2101H92.2537C92.0857 17.2101 91.9297 17.1218 91.8419 16.9771L87.2587 9.40533C87.0052 8.98689 86.3654 9.16708 86.3654 9.65714V18.69C86.3654 18.9577 86.1494 19.1741 85.8832 19.1741H83.8177C83.5514 19.1741 83.3354 18.9569 83.3354 18.69V2.47139C83.3354 2.20374 83.5514 1.98737 83.8177 1.98737H85.6762C85.8457 1.98737 86.0024 2.07708 86.0894 2.22259L92.3227 12.6804C92.511 12.9956 92.9662 12.9941 93.1515 12.6774L99.2677 2.22636C99.3547 2.07859 99.5129 1.98737 99.6832 1.98737H101.539C101.806 1.98737 102.021 2.20374 102.022 2.47139L102.044 18.6908C102.044 18.9584 101.829 19.1763 101.563 19.1763H99.5219C99.2557 19.1763 99.0405 18.9599 99.0397 18.693" fill="black"/>
<path d="M105.373 17.0148L106.078 15.4233C106.2 15.1488 106.536 15.0516 106.784 15.2197C108.151 16.1417 110.086 16.7683 111.963 16.7683C114.625 16.7683 115.749 15.8108 115.749 14.5336C115.749 10.8258 105.587 13.2572 105.587 6.87288C105.587 4.0984 107.785 1.74084 112.475 1.74084C114.363 1.74084 116.333 2.19848 117.797 3.03686C118.01 3.159 118.105 3.41684 118.012 3.64528L117.365 5.24815C117.259 5.51203 116.95 5.61607 116.7 5.48488C115.291 4.75131 113.792 4.39319 112.451 4.39319C109.813 4.39319 108.738 5.42457 108.738 6.72586C108.738 10.384 118.875 8.00227 118.875 14.3135C118.875 17.0631 116.652 19.4206 111.962 19.4206C109.486 19.4206 107.01 18.6983 105.535 17.6104C105.349 17.4724 105.278 17.2274 105.373 17.0156" fill="black"/>
</g>
<defs>
<linearGradient id="paint0_linear_692_115535" x1="29.4059" y1="23.8484" x2="36.9549" y2="23.8484" gradientUnits="userSpaceOnUse">
<stop stop-color="#1E5E60"/>
<stop offset="0.19" stop-color="#1C595B"/>
<stop offset="0.4" stop-color="#184B4D"/>
<stop offset="0.63" stop-color="#113536"/>
<stop offset="0.86" stop-color="#071616"/>
<stop offset="1"/>
</linearGradient>
<linearGradient id="paint1_linear_692_115535" x1="-0.283099" y1="24.0559" x2="7.07557" y2="24.0559" gradientUnits="userSpaceOnUse">
<stop stop-color="#1E5E60"/>
<stop offset="0.19" stop-color="#1C595B"/>
<stop offset="0.4" stop-color="#184B4D"/>
<stop offset="0.63" stop-color="#113536"/>
<stop offset="0.86" stop-color="#071616"/>
<stop offset="1"/>
</linearGradient>
<linearGradient id="paint2_linear_692_115535" x1="25.9349" y1="13.8822" x2="32.4434" y2="13.8822" gradientUnits="userSpaceOnUse">
<stop stop-color="#1E5E60"/>
<stop offset="0.19" stop-color="#1C595B"/>
<stop offset="0.4" stop-color="#184B4D"/>
<stop offset="0.63" stop-color="#113536"/>
<stop offset="0.86" stop-color="#071616"/>
<stop offset="1"/>
</linearGradient>
<linearGradient id="paint3_linear_692_115535" x1="4.29035" y1="13.8822" x2="10.7988" y2="13.8822" gradientUnits="userSpaceOnUse">
<stop stop-color="#1E5E60"/>
<stop offset="0.19" stop-color="#1C595B"/>
<stop offset="0.4" stop-color="#184B4D"/>
<stop offset="0.63" stop-color="#113536"/>
<stop offset="0.86" stop-color="#071616"/>
<stop offset="1"/>
</linearGradient>
<clipPath id="clip0_692_115535">
<rect width="37.0285" height="27.71" fill="white" transform="translate(0 2.14484)"/>
</clipPath>
<clipPath id="clip1_692_115535">
<rect width="75" height="32" fill="white" transform="translate(45.0283)"/>
</clipPath>
</defs>
</svg>
